<?xml version="1.0" encoding="utf-8"?>
<!-- Generator: Adobe Illustrator 15.1.0, SVG Export Plug-In  -->
<!DOCTYPE svg PUBLIC "-//W3C//DTD SVG 1.1//EN" "http://www.w3.org/Graphics/SVG/1.1/DTD/svg11.dtd" [
	<!ENTITY ns_flows "http://ns.adobe.com/Flows/1.0/">
]>
<svg version="1.1"
	 xmlns="http://www.w3.org/2000/svg" xmlns:xlink="http://www.w3.org/1999/xlink" xmlns:a="http://ns.adobe.com/AdobeSVGViewerExtensions/3.0/"
	 x="0px" y="0px" width="796px" height="787px" viewBox="-0.337 0.578 796 787" enable-background="new -0.337 0.578 796 787"
	 xml:space="preserve">
<defs>
</defs>
<path fill="#00ABAB" d="M774.375,393.524c0,0-1.479,2.031-4.279,5.531c-2.822,3.495-6.881,8.446-12.277,14.146
	c-2.772,2.848-5.845,5.882-9.194,9.007c-3.375,3.127-6.897,6.356-10.996,9.563c-4.029,3.214-8.311,6.432-12.812,9.567
	c-2.217,1.574-4.6,3.111-7.051,4.619c-2.437,1.507-4.925,2.985-7.459,4.426c-9.979,5.794-21.397,10.813-32.935,14.793
	c-5.918,1.957-12,3.626-18.099,5c-3.053,0.686-6.119,1.299-9.195,1.829c-3.149,0.511-6.309,0.94-9.468,1.287
	c-6.323,0.7-12.655,1.071-18.971,1.113c-6.341,0.033-12.827-0.327-19.168-0.978c-12.746-1.317-25.208-3.911-37.631-7.712
	c0,0,8.622,3.649,22.183,10.259c13.545,6.64,32.045,16.214,51.343,29.092c4.82,3.224,9.69,6.66,14.532,10.326
	c4.848,3.665,9.563,7.509,14.231,11.617c9.294,8.2,18.24,17.402,26.038,27.62c3.84,5.074,7.414,10.416,10.642,16.029
	c3.204,5.601,6.18,11.544,8.457,17.59c2.332,6.08,4.233,12.428,5.618,19.03c1.345,6.571,1.996,13.274,2.145,20.263
	c0,0,0.291-1.991,0.798-5.477c0.236-1.729,0.524-3.826,0.854-6.232c0.152-1.196,0.318-2.47,0.489-3.809
	c0.131-1.358,0.268-2.784,0.409-4.272c0.252-2.947,0.525-6.14,0.814-9.518c0.249-3.36,0.565-6.828,0.647-10.514
	c0.127-3.657,0.228-7.402,0.296-11.173c0.026-1.874,0.052-3.764,0.08-5.66c-0.018-1.906-0.077-3.832-0.123-5.735
	c-0.235-7.641-0.456-15.04-1.19-22.043c-0.646-6.962-1.257-13.263-2.164-18.722c-0.823-5.418-1.564-9.837-2.095-12.905
	c-0.599-3.091-0.994-4.848-0.994-4.848s1.129-1.522,3.104-4.188c1.952-2.688,4.907-6.508,8.004-11.335
	c3.157-4.807,7.009-10.464,10.591-16.814c1.841-3.16,3.772-6.455,5.675-9.853c1.786-3.456,3.596-6.969,5.406-10.482
	c0.903-1.783,1.807-3.57,2.704-5.348c0.855-1.791,1.645-3.596,2.461-5.389c1.608-3.627,3.192-7.194,4.724-10.65
	c2.91-6.981,5.343-13.659,7.529-19.446c1.97-5.789,3.509-10.698,4.613-14.153C773.752,395.508,774.375,393.524,774.375,393.524"/>
<path fill="#00ABAB" d="M747.385,529.072c-4.857-1.892-8.522-5.462-10.58-9.588c-2.035-4.13-2.74-8.917-1.195-13.396
	c0.758-2.246,1.979-4.222,3.542-5.896c1.521-1.683,3.333-3.082,5.413-4.113c4.144-2.061,9.23-2.715,14.253-1.312
	c5.021,1.4,9.008,4.646,11.349,8.879c1.162,2.112,1.945,4.475,2.189,6.924c0.199,2.435-0.092,4.971-0.931,7.458
	c-1.706,4.969-5.153,8.808-9.6,10.763C757.394,530.768,752.242,530.964,747.385,529.072"/>
<path fill="#00ABAB" d="M702.432,614.735c0,0-0.586,0.192-1.703,0.56c-1.129,0.354-2.749,0.894-4.916,1.485
	c-4.353,1.165-10.647,2.719-18.337,4.184c-0.959,0.178-1.941,0.357-2.949,0.543c-1.022,0.152-2.068,0.311-3.14,0.471
	c-2.133,0.306-4.346,0.598-6.632,0.868c-4.582,0.527-9.381,1.021-14.496,1.271c-10.346,0.394-21.358,0.354-33.051-1.077
	c-11.498-1.219-23.634-3.834-35.337-7.426c-5.928-1.887-11.837-4.117-17.579-6.582c-2.877-1.24-5.71-2.538-8.524-3.93
	c-2.847-1.436-5.656-2.938-8.419-4.51c-5.528-3.142-10.876-6.553-16.016-10.223c-5.179-3.729-10.199-7.791-14.963-12.042
	c-4.769-4.262-9.31-8.757-13.621-13.463c-4.303-4.687-8.463-9.73-12.349-14.858c0,0,4.84,8.014,11.946,21.321
	c7.073,13.326,16.439,31.938,24.519,53.696c2.014,5.438,3.947,11.087,5.717,16.889c1.744,5.76,3.336,11.686,4.7,17.74
	c2.715,12.085,4.594,24.842,4.888,37.637c0.133,6.366-0.106,12.794-0.783,19.242c-0.68,6.448-1.781,12.95-3.486,19.199
	c-1.683,6.3-3.877,12.563-6.636,18.731c-2.791,6.074-6.2,11.924-10.203,17.668c0,0,1.407-1.444,3.875-3.974
	c1.209-1.263,2.679-2.795,4.363-4.555c1.675-1.747,3.538-3.727,5.493-6.007c3.922-4.527,8.44-9.651,12.969-15.368
	c2.249-2.894,4.528-5.876,6.795-8.896c2.266-3.021,4.537-6.039,6.66-9.242c8.679-12.516,16.158-25.282,21.179-34.972
	c2.507-4.876,4.49-8.893,5.856-11.688c0.695-1.382,1.174-2.55,1.524-3.312c0.34-0.768,0.521-1.178,0.521-1.178
	s1.807-0.568,4.966-1.566c3.146-1.035,7.78-2.379,13.115-4.457c5.377-2.021,11.792-4.345,18.424-7.352
	c3.335-1.476,6.86-2.964,10.356-4.627c3.477-1.734,7.01-3.496,10.544-5.258c1.763-0.909,3.587-1.772,5.306-2.742
	c1.729-0.971,3.455-1.938,5.165-2.898c3.422-1.941,6.837-3.859,10.101-5.795c3.204-2.032,6.305-3.995,9.242-5.854
	c2.94-1.899,5.791-3.671,8.255-5.469c5.012-3.528,9.218-6.555,12.167-8.69C700.817,616.038,702.432,614.735,702.432,614.735"/>
<path fill="#00ABAB" d="M601.052,708.424c-2.824-4.383-3.702-9.424-2.953-13.975c0.188-1.141,0.483-2.243,0.868-3.313
	c0.372-1.092,0.844-2.14,1.415-3.127c1.141-1.976,2.672-3.71,4.601-5.082c1.926-1.373,4.069-2.255,6.313-2.688
	c2.23-0.451,4.506-0.528,6.795-0.136c4.557,0.773,9.055,3.237,12.291,7.321c3.238,4.085,4.564,9.052,3.979,13.847
	c-0.298,2.384-1.036,4.765-2.287,6.867c-1.262,2.087-2.98,3.968-5.111,5.485c-2.133,1.52-4.474,2.529-6.861,3.045
	c-1.193,0.258-2.399,0.391-3.597,0.404c-1.214-0.01-2.427-0.151-3.609-0.401C608.155,715.668,603.874,712.806,601.052,708.424"/>
<path fill="#00ABAB" d="M514.341,751.429c0,0-0.588-0.187-1.71-0.544c-1.125-0.382-2.752-0.877-4.861-1.69
	c-4.216-1.611-10.237-4.048-17.333-7.378c-3.53-1.604-7.404-3.736-11.415-5.955c-4.022-2.257-8.209-4.723-12.489-7.476
	c-4.301-2.875-8.685-5.991-13.057-9.341c-2.19-1.682-4.371-3.386-6.548-5.214c-2.185-1.87-4.355-3.8-6.504-5.784
	c-4.302-3.996-8.5-8.101-12.555-12.605c-4.062-4.56-7.96-9.322-11.636-14.259c-3.672-4.859-7.14-10.234-10.331-15.639
	c-3.194-5.444-6.121-10.938-8.744-16.725c-2.625-5.835-4.95-11.781-6.953-17.813c-2.002-6.054-3.698-12.076-5.047-18.426
	c-2.712-12.584-4.12-25.364-4.39-38.207c0,0-0.793,9.329-2.866,24.301c-2.117,15.002-5.471,35.521-11.706,57.792
	c-3.13,11.136-7.005,22.703-11.925,34.199c-2.465,5.78-5.171,11.411-8.181,16.957c-3.009,5.546-6.316,11.002-9.959,16.292
	c-14.523,21.16-34.597,39.169-61.055,48.214c0,0,1.979-0.311,5.44-0.856c3.479-0.663,8.415-1.633,14.217-2.866
	c2.91-0.65,6-1.228,9.297-2.114c3.288-0.849,6.722-1.764,10.231-2.728c1.743-0.485,3.516-0.981,5.312-1.482
	c1.782-0.493,3.579-1.023,5.393-1.637c3.62-1.177,7.25-2.395,10.833-3.631c7.153-2.352,14.175-5.327,20.565-7.967
	c3.199-1.326,6.248-2.627,9.114-4.034c2.832-1.368,5.509-2.662,7.979-3.854c2.417-1.206,4.632-2.313,6.594-3.293
	c1.944-1.036,3.622-1.986,4.995-2.752c2.729-1.537,4.287-2.416,4.287-2.416s1.791,0.622,4.925,1.716
	c3.148,1.165,7.673,2.465,13.203,4.069c2.765,0.79,5.779,1.685,8.995,2.539c3.243,0.76,6.664,1.559,10.203,2.387
	c7.144,1.768,14.854,3,22.726,4.342c3.945,0.732,7.874,1.076,11.802,1.577c3.914,0.44,7.822,0.951,11.598,1.252
	c3.797,0.243,7.468,0.481,10.947,0.705c3.504,0.201,6.856,0.434,9.917,0.425c6.142,0.086,11.337,0.105,14.986,0.105
	c1.827-0.002,3.236-0.102,4.214-0.126C513.823,751.449,514.341,751.429,514.341,751.429"/>
<path fill="#00ABAB" d="M377.191,767.618c0.292-5.193,2.54-9.755,5.815-13.11c3.287-3.324,7.598-5.325,12.313-5.222
	c2.36,0.09,4.606,0.555,6.67,1.458c2.063,0.909,3.945,2.246,5.561,3.915c3.223,3.332,5.398,7.99,5.613,13.201
	c0.213,5.208-1.638,9.983-4.922,13.484c-1.641,1.75-3.636,3.181-5.877,4.186c-2.239,1.009-4.727,1.601-7.333,1.51
	c-5.219-0.107-9.9-2.347-13.123-5.859C378.673,777.702,376.898,772.832,377.191,767.618"/>
<path fill="#00ABAB" d="M281.798,751.429c0,0-1.493-2.017-3.986-5.734c-1.245-1.858-2.734-4.141-4.391-6.802
	c-1.668-2.631-3.424-5.863-5.306-9.321c-1.87-3.485-3.823-7.313-5.781-11.431c-1.944-4.146-3.818-8.756-5.655-13.515
	c-3.721-9.433-6.853-20.393-9.25-31.667c-1.145-5.738-2.033-11.704-2.7-17.679c-0.32-3.006-0.616-5.974-0.779-9.057
	c-0.157-3.088-0.249-6.188-0.269-9.292c-0.021-3.101,0.03-6.205,0.153-9.306c0.125-3.101,0.311-6.178,0.647-9.355
	c0.634-6.302,1.573-12.559,2.825-18.729c1.213-6.125,2.917-12.4,4.856-18.457c1.953-6.075,4.214-12.026,6.769-17.837
	c5.2-11.741,11.641-22.96,18.991-33.497c0,0-6.135,7.071-16.624,17.944c-10.503,10.826-25.425,25.572-43.537,39.845
	c-18.128,14.257-39.878,28.381-63.994,36.809c-6.025,2.106-12.334,3.981-18.598,5.269c-6.29,1.309-12.727,2.199-19.29,2.604
	c-6.611,0.443-13.15,0.235-19.792-0.526c-6.621-0.774-13.445-2.023-19.981-4.15c0,0,1.783,0.904,4.902,2.489
	c3.184,1.509,7.751,3.605,13.156,6.006c5.343,2.456,11.81,4.974,18.604,7.527c6.715,2.633,14.138,4.953,21.35,7.187
	c1.802,0.544,3.602,1.086,5.397,1.629c1.822,0.477,3.637,0.954,5.437,1.427c3.588,0.927,7.09,1.798,10.452,2.607
	c3.327,0.848,6.677,1.454,9.769,2.07c3.083,0.576,5.998,1.121,8.688,1.624c1.332,0.234,2.606,0.46,3.82,0.673
	c1.231,0.174,2.4,0.338,3.499,0.493c2.179,0.287,4.079,0.542,5.643,0.749c3.1,0.384,4.871,0.604,4.871,0.604
	s1.045,1.589,2.963,4.308c2.005,2.674,4.87,6.492,8.308,11.075c1.719,2.347,3.747,4.691,5.865,7.258
	c2.156,2.561,4.429,5.261,6.783,8.056c2.434,2.722,5.021,5.479,7.667,8.323c2.646,2.846,5.364,5.757,8.234,8.472
	c2.879,2.774,5.757,5.549,8.591,8.281c2.885,2.708,5.851,5.199,8.708,7.71c1.442,1.247,2.86,2.47,4.248,3.669
	c0.701,0.6,1.391,1.191,2.076,1.777c0.702,0.558,1.395,1.106,2.076,1.648c2.77,2.169,5.386,4.217,7.803,6.108
	c4.852,3.861,9.105,6.757,12.079,8.846C280.088,750.24,281.798,751.429,281.798,751.429"/>
<path fill="#00ABAB" d="M161.202,683.825c3.301-4.034,7.85-6.447,12.443-7.18c4.622-0.752,9.204,0.291,13.023,3.076
	c3.843,2.75,6.101,6.944,6.74,11.58c0.611,4.654-0.313,9.635-3.204,13.975c-2.889,4.337-7.247,7.181-11.933,8.015
	c-4.697,0.869-9.8-0.159-14.054-3.217c-4.23-3.086-6.62-7.778-7.168-12.518C156.514,692.785,157.899,687.859,161.202,683.825"/>
<path fill="#00ABAB" d="M93.707,614.735c0,0-0.023-2.504,0.146-6.969c0.084-2.229,0.219-4.946,0.441-8.069
	c0.234-3.129,0.678-6.748,1.194-10.653c0.528-3.914,1.192-8.153,2.02-12.629c0.911-4.524,2.053-9.328,3.362-14.262
	c0.659-2.468,1.368-4.974,2.128-7.507c0.758-2.532,1.693-5.159,2.618-7.762c1.881-5.229,3.981-10.521,6.327-15.796
	c5.026-10.716,10.769-21.24,18.115-31.387c1.802-2.523,3.661-5.004,5.578-7.44c0.958-1.216,1.932-2.424,2.919-3.617
	c1.013-1.204,2.061-2.4,3.111-3.58c4.21-4.727,8.642-9.236,13.277-13.49c4.57-4.237,9.666-8.317,14.784-12.067
	c5.15-3.765,10.48-7.245,15.964-10.438c11.1-6.423,22.93-11.699,35.072-15.888c0,0-9.12,2.111-23.995,4.734
	c-7.44,1.305-16.324,2.72-26.252,3.942c-4.962,0.611-10.196,1.174-15.625,1.64c-5.402,0.46-11.015,0.822-16.785,1.041
	c-11.541,0.438-23.72,0.295-36.144-0.87c-6.195-0.583-12.525-1.41-18.728-2.571c-6.187-1.161-12.375-2.638-18.509-4.483
	c-6.133-1.847-12.21-4.063-18.175-6.702c-5.858-2.646-11.543-5.718-17.064-9.257C18.303,413.578,8.563,404.612,0,393.525
	c0,0,0.956,1.774,2.629,4.876c1.678,3.086,4.085,7.456,7,12.566c1.409,2.554,3.172,5.295,4.95,8.154
	c1.797,2.858,3.697,5.838,5.669,8.871c0.997,1.519,1.965,3.053,3.032,4.585c1.081,1.523,2.176,3.064,3.28,4.617
	c2.21,3.085,4.459,6.166,6.712,9.197c2.192,3.039,4.659,5.989,6.988,8.861c2.349,2.868,4.66,5.641,6.894,8.28
	c4.548,5.264,9.057,9.942,12.772,13.875c0.94,0.976,1.839,1.909,2.696,2.798c0.896,0.865,1.746,1.688,2.545,2.459
	c1.594,1.519,2.984,2.843,4.129,3.933c2.282,2.138,3.586,3.359,3.586,3.359l-0.14,5.238c0.059,3.346,0.142,8.123,0.241,13.857
	c0.022,2.915,0.248,6.019,0.482,9.334c0.25,3.343,0.513,6.865,0.786,10.512c0.321,3.656,0.851,7.388,1.319,11.251
	c0.512,3.84,0.944,7.826,1.69,11.7c0.712,3.933,1.423,7.863,2.124,11.733c0.34,1.962,0.768,3.868,1.21,5.75
	c0.439,1.895,0.874,3.766,1.301,5.604c0.889,3.675,1.68,7.314,2.625,10.67c0.973,3.374,1.89,6.562,2.739,9.504
	c0.884,2.943,1.636,5.709,2.451,8.072c0.814,2.379,1.525,4.448,2.111,6.158C93.023,612.774,93.707,614.735,93.707,614.735"/>
<path fill="#00ABAB" d="M35.747,489.162c5.043-1.321,10.143-0.598,14.292,1.519c4.178,2.117,7.287,5.658,8.731,10.169
	c1.501,4.492,0.872,9.219-1.326,13.353c-1.1,2.062-2.595,3.974-4.423,5.597c-1.798,1.613-3.943,2.946-6.387,3.852
	c-2.444,0.903-4.958,1.294-7.413,1.201c-2.426-0.106-4.781-0.701-6.941-1.736c-4.315-2.061-7.851-5.902-9.508-10.889
	c-1.601-5.001-0.793-10.214,1.55-14.381C26.69,493.661,30.705,490.484,35.747,489.162"/>
<path fill="#00ABAB" d="M21.765,393.524c0,0,1.479-2.031,4.279-5.53c2.824-3.496,6.881-8.448,12.277-14.146
	c2.771-2.848,5.845-5.881,9.195-9.008c3.375-3.125,6.897-6.354,10.995-9.561c4.028-3.213,8.312-6.431,12.812-9.567
	c2.218-1.575,4.599-3.111,7.05-4.619c2.438-1.508,4.926-2.986,7.46-4.426c9.979-5.794,21.396-10.813,32.935-14.792
	c5.919-1.957,12-3.627,18.098-5.001c3.052-0.686,6.12-1.298,9.195-1.83c3.15-0.509,6.31-0.938,9.469-1.286
	c6.321-0.699,12.654-1.071,18.971-1.112c6.34-0.033,12.825,0.326,19.168,0.977c12.748,1.317,25.207,3.912,37.63,7.71
	c0,0-8.621-3.65-22.182-10.257c-13.544-6.64-32.044-16.215-51.343-29.092c-4.82-3.223-9.69-6.66-14.533-10.326
	c-4.847-3.666-9.565-7.509-14.232-11.618c-9.293-8.2-18.24-17.402-26.038-27.62c-3.84-5.075-7.413-10.416-10.641-16.03
	c-3.205-5.599-6.18-11.543-8.458-17.588c-2.332-6.081-4.231-12.429-5.617-19.03c-1.345-6.572-1.997-13.276-2.145-20.264
	c0,0-0.292,1.99-0.799,5.476c-0.236,1.729-0.523,3.827-0.854,6.234c-0.152,1.196-0.316,2.469-0.489,3.81
	c-0.13,1.357-0.267,2.784-0.408,4.272c-0.252,2.947-0.526,6.139-0.814,9.516c-0.25,3.362-0.565,6.829-0.647,10.514
	c-0.127,3.658-0.228,7.403-0.296,11.173c-0.026,1.875-0.052,3.763-0.08,5.661c0.017,1.906,0.077,3.832,0.124,5.734
	c0.234,7.641,0.456,15.04,1.191,22.044c0.646,6.962,1.255,13.262,2.163,18.72c0.823,5.42,1.564,9.837,2.095,12.907
	c0.598,3.09,0.995,4.846,0.995,4.846s-1.13,1.524-3.107,4.188c-1.951,2.688-4.904,6.508-8.001,11.335
	c-3.159,4.808-7.009,10.464-10.592,16.813c-1.842,3.163-3.774,6.457-5.676,9.855c-1.784,3.456-3.596,6.968-5.406,10.482
	c-0.902,1.784-1.805,3.567-2.702,5.346c-0.855,1.793-1.646,3.597-2.463,5.391c-1.608,3.626-3.19,7.194-4.723,10.649
	c-2.91,6.983-5.343,13.659-7.53,19.446c-1.97,5.79-3.508,10.7-4.615,14.154C22.388,391.542,21.765,393.524,21.765,393.524"/>
<path fill="#00ABAB" d="M48.753,257.977c4.859,1.891,8.524,5.461,10.582,9.587c2.035,4.129,2.741,8.919,1.196,13.396
	c-0.758,2.247-1.978,4.222-3.542,5.895c-1.521,1.685-3.333,3.085-5.413,4.114c-4.145,2.063-9.231,2.714-14.253,1.313
	c-5.021-1.401-9.008-4.646-11.349-8.88c-1.162-2.111-1.948-4.474-2.188-6.923c-0.2-2.433,0.09-4.972,0.928-7.459
	c1.708-4.967,5.154-8.806,9.601-10.763C38.745,256.282,43.897,256.086,48.753,257.977"/>
<path fill="#00ABAB" d="M93.707,172.313c0,0,0.585-0.192,1.706-0.56c1.127-0.352,2.749-0.892,4.914-1.484
	c4.353-1.166,10.648-2.719,18.337-4.183c0.959-0.177,1.941-0.358,2.949-0.543c1.023-0.153,2.07-0.311,3.141-0.47
	c2.133-0.308,4.347-0.598,6.631-0.868c4.582-0.527,9.381-1.021,14.496-1.271c10.346-0.396,21.358-0.354,33.05,1.077
	c11.5,1.22,23.636,3.833,35.337,7.426c5.928,1.887,11.837,4.114,17.579,6.581c2.877,1.242,5.711,2.538,8.526,3.93
	c2.847,1.437,5.656,2.939,8.419,4.51c5.529,3.142,10.875,6.555,16.015,10.224c5.18,3.729,10.2,7.792,14.962,12.043
	c4.769,4.261,9.31,8.756,13.622,13.461c4.304,4.688,8.461,9.732,12.348,14.86c0,0-4.839-8.015-11.947-21.323
	c-7.073-13.327-16.439-31.938-24.518-53.695c-2.013-5.438-3.947-11.088-5.716-16.889c-1.746-5.759-3.336-11.684-4.701-17.74
	c-2.715-12.086-4.593-24.841-4.888-37.637c-0.133-6.367,0.106-12.794,0.784-19.243c0.679-6.448,1.78-12.951,3.486-19.197
	c1.684-6.301,3.876-12.563,6.635-18.734c2.793-6.073,6.201-11.923,10.204-17.667c0,0-1.41,1.444-3.874,3.973
	c-1.21,1.262-2.68,2.795-4.365,4.556c-1.673,1.747-3.537,3.725-5.492,6.005c-3.924,4.528-8.441,9.653-12.969,15.37
	c-2.25,2.894-4.53,5.876-6.794,8.894c-2.268,3.022-4.538,6.041-6.662,9.245c-8.678,12.515-16.158,25.281-21.178,34.971
	c-2.507,4.875-4.49,8.891-5.857,11.688c-0.695,1.38-1.174,2.55-1.524,3.31c-0.34,0.769-0.522,1.179-0.522,1.179
	s-1.805,0.569-4.964,1.566c-3.148,1.036-7.781,2.38-13.116,4.458c-5.377,2.021-11.793,4.343-18.424,7.352
	c-3.335,1.476-6.863,2.963-10.355,4.625c-3.479,1.736-7.012,3.498-10.546,5.259c-1.763,0.909-3.586,1.772-5.305,2.741
	c-1.73,0.971-3.455,1.939-5.165,2.898c-3.423,1.942-6.836,3.861-10.1,5.796c-3.205,2.031-6.306,3.995-9.245,5.855
	c-2.938,1.899-5.789,3.668-8.254,5.467c-5.011,3.528-9.216,6.555-12.165,8.692C95.322,171.01,93.707,172.313,93.707,172.313"/>
<path fill="#00ABAB" d="M195.088,78.625c2.823,4.383,3.702,9.425,2.952,13.976c-0.187,1.14-0.483,2.242-0.868,3.313
	c-0.373,1.093-0.844,2.14-1.415,3.127c-1.14,1.977-2.672,3.71-4.6,5.083c-1.927,1.373-4.07,2.254-6.313,2.688
	c-2.23,0.453-4.507,0.529-6.795,0.135c-4.557-0.772-9.053-3.236-12.292-7.322c-3.237-4.083-4.563-9.051-3.978-13.844
	c0.299-2.384,1.038-4.766,2.286-6.868c1.263-2.086,2.981-3.967,5.112-5.486c2.132-1.519,4.474-2.529,6.862-3.045
	c1.194-0.256,2.399-0.39,3.597-0.402c1.214,0.01,2.429,0.151,3.608,0.399C187.984,71.381,192.266,74.244,195.088,78.625"/>
<path fill="#00ABAB" d="M281.798,35.62c0,0,0.587,0.188,1.711,0.545c1.124,0.38,2.75,0.877,4.861,1.69
	c4.216,1.612,10.238,4.047,17.332,7.379c3.531,1.605,7.404,3.736,11.415,5.954c4.021,2.258,8.209,4.725,12.488,7.477
	c4.302,2.875,8.685,5.992,13.058,9.34c2.189,1.682,4.371,3.387,6.547,5.214c2.184,1.872,4.355,3.801,6.504,5.785
	c4.302,3.996,8.501,8.1,12.555,12.606c4.062,4.56,7.959,9.322,11.635,14.257c3.672,4.861,7.14,10.234,10.333,15.639
	c3.194,5.446,6.119,10.938,8.743,16.726c2.626,5.835,4.949,11.78,6.953,17.811c2.001,6.055,3.697,12.078,5.046,18.426
	c2.713,12.583,4.121,25.365,4.392,38.206c0,0,0.791-9.327,2.865-24.299c2.116-15.003,5.471-35.523,11.707-57.792
	c3.129-11.136,7.004-22.704,11.924-34.201c2.465-5.781,5.172-11.41,8.181-16.956c3.009-5.547,6.316-11.002,9.958-16.293
	c14.524-21.159,34.6-39.168,61.057-48.214c0,0-1.979,0.311-5.441,0.858c-3.479,0.664-8.415,1.633-14.219,2.867
	c-2.908,0.648-5.998,1.226-9.295,2.112c-3.288,0.85-6.722,1.763-10.231,2.728c-1.744,0.486-3.517,0.982-5.312,1.483
	c-1.781,0.492-3.579,1.023-5.394,1.634c-3.619,1.179-7.25,2.397-10.833,3.631c-7.151,2.354-14.175,5.33-20.563,7.967
	c-3.199,1.327-6.247,2.627-9.115,4.035c-2.83,1.369-5.508,2.662-7.978,3.856c-2.418,1.206-4.633,2.311-6.596,3.292
	c-1.942,1.037-3.621,1.988-4.994,2.75c-2.729,1.539-4.287,2.418-4.287,2.418s-1.791-0.623-4.924-1.716
	c-3.149-1.166-7.674-2.466-13.203-4.071c-2.765-0.789-5.78-1.683-8.997-2.539c-3.243-0.759-6.663-1.558-10.202-2.385
	c-7.144-1.768-14.854-3.001-22.727-4.342c-3.943-0.732-7.873-1.075-11.799-1.578c-3.917-0.439-7.825-0.951-11.599-1.25
	c-3.797-0.245-7.467-0.481-10.949-0.706c-3.503-0.202-6.856-0.435-9.914-0.426c-6.144-0.086-11.337-0.104-14.988-0.104
	c-1.826,0.001-3.237,0.101-4.213,0.125C282.317,35.599,281.798,35.62,281.798,35.62"/>
<path fill="#00ABAB" d="M418.95,19.43c-0.292,5.195-2.54,9.755-5.816,13.112c-3.286,3.323-7.598,5.325-12.313,5.221
	c-2.359-0.09-4.605-0.555-6.669-1.458c-2.062-0.909-3.945-2.247-5.561-3.915c-3.222-3.334-5.399-7.992-5.613-13.201
	c-0.212-5.208,1.637-9.985,4.922-13.486c1.641-1.749,3.635-3.181,5.875-4.184c2.24-1.008,4.726-1.603,7.333-1.511
	c5.219,0.107,9.901,2.346,13.122,5.859C417.466,9.347,419.243,14.214,418.95,19.43"/>
<path fill="#00ABAB" d="M514.341,35.62c0,0,1.493,2.018,3.987,5.734c1.243,1.859,2.733,4.141,4.391,6.804
	c1.668,2.63,3.423,5.861,5.305,9.32c1.871,3.485,3.822,7.314,5.781,11.432c1.944,4.146,3.818,8.756,5.656,13.513
	c3.721,9.434,6.853,20.393,9.249,31.668c1.146,5.738,2.033,11.703,2.7,17.679c0.32,3.007,0.616,5.973,0.779,9.055
	c0.157,3.09,0.248,6.19,0.267,9.292c0.022,3.103-0.028,6.208-0.151,9.307c-0.126,3.1-0.311,6.179-0.646,9.356
	c-0.637,6.302-1.576,12.559-2.826,18.73c-1.215,6.122-2.918,12.399-4.857,18.455c-1.953,6.076-4.214,12.028-6.77,17.839
	c-5.198,11.741-11.64,22.959-18.99,33.496c0,0,6.136-7.071,16.623-17.943c10.503-10.828,25.427-25.572,43.538-39.847
	c18.125-14.254,39.877-28.38,63.992-36.807c6.025-2.106,12.336-3.983,18.6-5.27c6.287-1.307,12.727-2.2,19.286-2.602
	c6.612-0.446,13.151-0.237,19.794,0.525c6.621,0.775,13.445,2.023,19.98,4.15c0,0-1.781-0.904-4.901-2.489
	c-3.184-1.508-7.75-3.605-13.156-6.006c-5.343-2.457-11.811-4.974-18.604-7.529c-6.715-2.632-14.137-4.954-21.35-7.187
	c-1.801-0.543-3.601-1.086-5.396-1.627c-1.821-0.479-3.637-0.955-5.438-1.428c-3.588-0.925-7.088-1.797-10.451-2.606
	c-3.325-0.848-6.675-1.455-9.769-2.071c-3.083-0.575-5.999-1.12-8.688-1.623c-1.333-0.233-2.607-0.459-3.819-0.673
	c-1.233-0.173-2.401-0.338-3.5-0.492c-2.179-0.29-4.079-0.542-5.643-0.749c-3.1-0.386-4.871-0.605-4.871-0.605
	s-1.045-1.589-2.963-4.308c-2.006-2.674-4.87-6.493-8.309-11.075c-1.719-2.347-3.745-4.69-5.864-7.257
	c-2.155-2.562-4.431-5.264-6.781-8.057c-2.435-2.721-5.021-5.48-7.668-8.324c-2.647-2.847-5.365-5.757-8.234-8.471
	c-2.88-2.775-5.757-5.549-8.591-8.28c-2.884-2.708-5.851-5.201-8.706-7.712c-1.442-1.245-2.862-2.468-4.249-3.667
	c-0.699-0.601-1.393-1.192-2.078-1.778c-0.699-0.558-1.392-1.107-2.073-1.649c-2.77-2.167-5.387-4.217-7.804-6.108
	c-4.852-3.861-9.104-6.756-12.077-8.845C516.052,36.809,514.341,35.62,514.341,35.62"/>
<path fill="#00ABAB" d="M634.938,103.223c-3.3,4.036-7.851,6.449-12.442,7.18c-4.623,0.751-9.203-0.292-13.025-3.075
	c-3.841-2.752-6.098-6.947-6.738-11.58c-0.611-4.656,0.313-9.637,3.203-13.976c2.89-4.337,7.248-7.182,11.933-8.016
	c4.698-0.869,9.801,0.161,14.057,3.218c4.229,3.085,6.618,7.777,7.167,12.516C639.625,94.264,638.24,99.19,634.938,103.223"/>
<path fill="#00ABAB" d="M702.432,172.313c0,0,0.022,2.505-0.145,6.969c-0.084,2.23-0.22,4.947-0.442,8.07
	c-0.234,3.128-0.679,6.75-1.192,10.654c-0.529,3.914-1.194,8.153-2.021,12.629c-0.91,4.524-2.051,9.327-3.362,14.261
	c-0.657,2.469-1.366,4.976-2.128,7.507c-0.757,2.533-1.693,5.16-2.617,7.764c-1.88,5.228-3.98,10.519-6.328,15.794
	c-5.024,10.714-10.768,21.24-18.113,31.387c-1.803,2.522-3.661,5.004-5.578,7.44c-0.959,1.217-1.933,2.423-2.92,3.617
	c-1.014,1.204-2.061,2.4-3.111,3.582c-4.211,4.727-8.641,9.236-13.277,13.49c-4.57,4.236-9.664,8.317-14.783,12.067
	c-5.15,3.765-10.479,7.244-15.963,10.437c-11.103,6.424-22.931,11.701-35.075,15.888c0,0,9.122-2.111,23.997-4.736
	c7.44-1.303,16.323-2.718,26.253-3.941c4.962-0.611,10.195-1.174,15.623-1.639c5.404-0.461,11.017-0.823,16.786-1.042
	c11.54-0.437,23.721-0.292,36.144,0.87c6.195,0.584,12.524,1.412,18.727,2.573c6.188,1.161,12.375,2.639,18.511,4.484
	c6.133,1.846,12.211,4.063,18.174,6.701c5.857,2.646,11.543,5.717,17.065,9.257c11.185,7.077,20.923,16.043,29.487,27.131
	c0,0-0.957-1.772-2.631-4.877c-1.678-3.085-4.085-7.455-6.998-12.565c-1.412-2.553-3.175-5.296-4.953-8.155
	c-1.796-2.858-3.697-5.836-5.669-8.872c-0.997-1.517-1.964-3.051-3.031-4.584c-1.082-1.524-2.177-3.063-3.279-4.617
	c-2.212-3.083-4.46-6.166-6.713-9.197c-2.19-3.038-4.659-5.991-6.987-8.861c-2.35-2.869-4.66-5.641-6.896-8.281
	c-4.547-5.265-9.057-9.943-12.77-13.876c-0.94-0.975-1.842-1.908-2.697-2.797c-0.896-0.865-1.747-1.687-2.546-2.459
	c-1.593-1.52-2.984-2.843-4.129-3.933c-2.281-2.137-3.586-3.358-3.586-3.358l0.139-5.239c-0.058-3.346-0.142-8.124-0.24-13.858
	c-0.021-2.915-0.248-6.02-0.482-9.336c-0.25-3.34-0.513-6.865-0.785-10.51c-0.323-3.657-0.853-7.388-1.318-11.25
	c-0.514-3.841-0.944-7.828-1.69-11.702c-0.713-3.933-1.423-7.863-2.125-11.734c-0.339-1.96-0.767-3.867-1.209-5.749
	c-0.439-1.895-0.874-3.765-1.302-5.604c-0.892-3.676-1.681-7.313-2.624-10.671c-0.973-3.373-1.89-6.56-2.739-9.502
	c-0.885-2.944-1.637-5.709-2.451-8.073c-0.814-2.377-1.524-4.45-2.11-6.157C703.118,174.275,702.432,172.313,702.432,172.313"/>
<path fill="#00ABAB" d="M760.393,297.887c-5.042,1.323-10.143,0.597-14.292-1.517c-4.178-2.118-7.287-5.66-8.731-10.169
	c-1.502-4.493-0.871-9.219,1.325-13.353c1.1-2.063,2.594-3.974,4.423-5.598c1.799-1.613,3.944-2.945,6.389-3.851
	c2.442-0.904,4.958-1.295,7.412-1.2c2.425,0.105,4.781,0.701,6.94,1.735c4.316,2.061,7.852,5.902,9.51,10.889
	c1.6,5.003,0.79,10.213-1.55,14.38C769.45,293.389,765.436,296.565,760.393,297.887"/>
<path fill="#EC0A7E" d="M557.21,552.665c0,0-2.762,0.683-7.673,1.592c-4.86,0.938-12.056,1.909-20.64,2.317
	c-8.654,0.332-18.743,0.051-29.493-1.76c-10.678-1.69-22.024-4.995-32.823-9.892c-10.82-4.888-21.207-11.659-30.214-19.807
	c-9.055-8.221-16.763-17.97-22.723-28.696c-2.988-5.399-5.551-11.031-7.681-16.817c-2.14-5.885-3.838-11.776-5.155-17.927
	c-1.314-6.153-2.235-12.35-2.831-18.633c-0.596-6.342-0.867-12.713-0.913-19.109c0,0-0.081,2.338-0.229,6.563
	c-0.165,4.224-0.414,10.332-0.867,17.866c-0.959,15.1-2.523,35.815-7.439,58.411c-4.96,22.51-13.472,46.941-29.661,67.457
	c-2.022,2.552-4.163,5.052-6.432,7.482c-2.265,2.402-4.642,4.686-7.161,6.914c-2.513,2.209-5.172,4.388-7.944,6.368
	c-2.767,1.974-5.672,3.846-8.717,5.604c-12.129,6.931-26.507,11.776-42.625,12.842c0,0,2.397,0.161,6.595,0.438
	c2.075,0.142,4.613,0.229,7.509,0.255c2.895,0.033,6.114,0.09,9.619-0.003c3.514-0.119,7.281-0.296,11.201-0.545
	c3.95-0.344,8.063-0.771,12.236-1.272c4.206-0.625,8.47-1.287,12.731-2.107c4.282-0.914,8.528-1.789,12.716-2.931
	c8.374-2.229,16.398-4.883,23.608-7.831c3.607-1.454,7.006-2.903,10.168-4.448c3.159-1.503,6.073-2.918,8.711-4.396
	c2.638-1.45,5.003-2.741,7.062-3.984c2.023-1.267,3.791-2.369,5.244-3.278c2.86-1.802,4.426-2.943,4.426-2.943
	s2.061,0.339,5.661,0.928c1.818,0.319,4.018,0.543,6.58,0.839c2.562,0.295,5.473,0.604,8.665,0.76
	c12.755,0.85,30.425,0.471,48.316-3.041c2.238-0.462,4.476-0.922,6.704-1.381c2.246-0.466,4.426-1.081,6.637-1.64
	c4.433-1.098,8.714-2.456,12.902-3.816c4.208-1.333,8.141-2.929,11.98-4.379c3.778-1.526,7.303-3.122,10.604-4.597
	c6.466-3.092,11.888-5.896,15.533-8.04C555.096,553.888,557.21,552.665,557.21,552.665"/>
<path fill="#EC0A7E" d="M408.142,616.741c-0.225-5.184,1.919-10.045,5.308-13.713c3.415-3.608,8.056-6.276,13.438-6.968
	c5.362-0.847,10.57,0.454,14.858,2.958c4.278,2.569,7.689,6.627,8.924,11.693c1.232,5.062-0.053,10.206-3.391,14.423
	c-3.306,4.273-8.716,7.316-15.092,8.308c-6.394,0.833-12.437-0.615-16.79-3.788C411.024,626.541,408.366,621.973,408.142,616.741"/>
<path fill="#EC0A7E" d="M295.876,594.051c0,0-1.569-2.334-3.949-6.802c-1.191-2.226-2.609-4.915-4.096-8.09
	c-1.459-3.217-3.012-6.873-4.548-10.884c-1.477-4.092-2.927-8.555-4.225-13.311c-0.615-2.421-1.198-4.907-1.733-7.452
	c-0.542-2.537-1.038-5.129-1.404-7.846c-0.385-2.694-0.713-5.432-0.976-8.197c-0.262-2.768-0.363-5.656-0.441-8.511
	c-0.182-5.679,0.161-11.645,0.782-17.49c0.322-2.937,0.823-5.945,1.363-8.881c0.546-2.94,1.188-5.86,2.012-8.815
	c0.8-2.934,1.691-5.829,2.675-8.672c1.05-2.893,2.194-5.731,3.43-8.508c1.208-2.757,2.601-5.515,4.09-8.205
	c1.493-2.69,3.026-5.279,4.731-7.836c3.464-5.149,7.153-9.911,11.417-14.446c2.103-2.254,4.272-4.411,6.523-6.479
	c2.303-2.096,4.673-4.095,7.104-6.002c4.813-3.792,10.067-7.286,15.463-10.401c5.36-3.107,11.068-5.915,16.881-8.415
	c5.831-2.507,11.726-4.688,17.857-6.715c0,0-2.249,0.644-6.312,1.803c-4.068,1.145-9.95,2.787-17.249,4.676
	c-7.298,1.884-16.013,4.014-25.783,5.999c-9.747,1.972-20.653,3.821-32.084,4.92c-5.732,0.553-11.639,0.928-17.68,1.042
	c-6.052,0.115-12.215-0.032-18.377-0.544c-6.183-0.507-12.453-1.359-18.722-2.652c-6.195-1.304-12.402-3.046-18.552-5.313
	c-6.104-2.271-12.045-5.079-17.888-8.488c-5.704-3.414-11.332-7.436-16.495-12.125c-10.398-9.376-19.279-21.478-25.4-36.409
	c0,0,0.139,0.582,0.399,1.673c0.247,1.088,0.667,2.686,1.232,4.7c1.12,4.027,2.716,9.706,5.091,16.29
	c0.583,1.643,1.172,3.341,1.839,5.085c0.696,1.729,1.415,3.515,2.152,5.351c0.759,1.801,1.538,3.652,2.335,5.541
	c0.865,1.851,1.751,3.741,2.651,5.663c0.919,1.9,1.823,3.813,2.816,5.719c1.02,1.887,2.052,3.792,3.092,5.714
	c2.044,3.801,4.381,7.541,6.679,11.185c2.256,3.648,4.827,7.157,7.217,10.527c2.451,3.363,5.039,6.545,7.463,9.546
	c2.517,2.984,5.026,5.763,7.368,8.329c2.415,2.548,4.762,4.863,6.89,6.953c2.128,2.092,4.233,3.897,6.014,5.494
	c1.801,1.586,3.35,2.938,4.711,4.002c2.669,2.105,4.193,3.309,4.193,3.309s0.068,0.52,0.197,1.489
	c0.114,0.98,0.353,2.391,0.677,4.191c0.336,1.819,0.743,4.024,1.212,6.556c0.554,2.513,1.228,5.353,1.994,8.487
	c0.779,3.126,1.813,6.445,2.883,10.041c1.139,3.547,2.479,7.265,3.918,11.147c3.04,7.637,6.677,15.848,11.068,23.718
	c4.275,7.979,9.307,15.636,14.434,22.765c2.616,3.502,5.25,6.871,7.836,10.033c2.651,3.08,5.189,6.049,7.646,8.688
	c2.48,2.608,4.807,4.993,6.901,7.104c2.13,2.047,4.036,3.808,5.614,5.265C293.96,592.506,295.876,594.051,295.876,594.051"/>
<path fill="#EC0A7E" d="M188.879,472.057c4.891-1.821,10.123-1.253,14.631,0.861c2.301,1.045,4.427,2.488,6.255,4.282
	c0.918,0.896,1.741,1.887,2.515,2.947c0.791,1.055,1.495,2.194,2.098,3.418c2.346,4.921,2.929,10.182,1.779,15.107
	c-1.159,4.9-3.841,9.34-8.295,12.102c-4.406,2.731-9.809,3.17-14.813,1.266c-4.987-1.889-9.771-6.006-12.572-11.855
	c-0.713-1.454-1.288-2.93-1.721-4.407c-0.416-1.486-0.657-2.988-0.785-4.457c-0.246-2.939,0.043-5.771,0.818-8.323
	C180.424,477.85,184.002,473.874,188.879,472.057"/>
<path fill="#EC0A7E" d="M175.792,358.387c0,0,1.813-2.194,5.216-5.843c1.697-1.824,3.923-3.978,6.463-6.371
	c1.285-1.194,2.633-2.449,4.128-3.734c1.511-1.281,3.115-2.602,4.806-3.946c6.699-5.391,15.209-11.035,24.857-15.925
	c9.794-4.834,20.659-8.944,32.408-11.261c11.679-2.363,23.917-3.088,36.101-1.709c6.01,0.62,12.134,1.863,17.981,3.46
	c2.924,0.801,5.907,1.801,8.772,2.848c2.897,1.077,5.667,2.186,8.5,3.516c11.208,5.189,21.53,12.149,30.855,20.515
	c4.682,4.204,9.04,8.628,13.243,13.405c4.203,4.774,8.161,9.769,11.954,14.917c0,0-1.311-1.939-3.677-5.441
	c-2.355-3.511-5.748-8.597-9.818-14.956c-8.118-12.776-19.04-30.413-28.367-51.593c-9.233-21.116-16.699-45.892-15.608-72.017
	c0.278-6.515,1.082-13.137,2.574-19.639c0.742-3.268,1.631-6.567,2.704-9.826c1.084-3.219,2.342-6.438,3.777-9.644
	c5.75-12.749,14.538-25.068,26.884-35.396c0,0-2.025,1.277-5.567,3.51c-1.754,1.099-3.847,2.536-6.204,4.2
	c-2.354,1.677-4.986,3.491-7.758,5.645c-2.769,2.16-5.715,4.485-8.734,7.009c-2.996,2.602-6.086,5.328-9.164,8.21
	c-3.046,2.977-6.125,5.988-9.094,9.179c-2.942,3.259-5.884,6.44-8.61,9.85c-5.5,6.723-10.459,13.612-14.581,20.249
	c-2.065,3.316-3.989,6.473-5.636,9.597c-1.657,3.108-3.225,5.928-4.477,8.692c-1.283,2.726-2.406,5.203-3.369,7.385
	c-0.935,2.212-1.678,4.167-2.297,5.749c-1.187,3.155-1.866,4.959-1.866,4.959s-1.846,0.947-5.077,2.602
	c-3.287,1.641-7.799,4.249-13.267,7.603c-2.66,1.752-5.593,3.661-8.639,5.805c-2.965,2.217-6.214,4.526-9.381,7.153
	c-3.168,2.629-6.508,5.377-9.683,8.412c-1.604,1.506-3.263,3.019-4.848,4.606c-1.569,1.619-3.144,3.247-4.72,4.873
	c-12.612,13.161-23.245,28.866-30.204,41.491c-0.872,1.588-1.705,3.106-2.498,4.552c-0.738,1.477-1.438,2.876-2.095,4.192
	c-1.29,2.652-2.47,4.981-3.313,6.936C176.763,356.139,175.792,358.387,175.792,358.387"/>
<path fill="#EC0A7E" d="M258.626,218.939c3.245,4.074,4.318,9.199,3.778,14.198c-0.286,2.49-1.006,4.936-2.153,7.204
	c-1.103,2.307-2.602,4.471-4.562,6.339c-1.983,1.848-4.129,3.339-6.449,4.394c-2.317,1.053-4.808,1.665-7.308,1.865
	c-4.933,0.458-10.056-0.807-14.031-4.18c-3.973-3.372-5.98-8.301-5.8-13.696c0.118-2.655,0.802-5.389,2.014-8.05
	c1.21-2.659,2.95-5.241,5.287-7.432c2.315-2.215,4.892-3.936,7.567-5.088c2.721-1.116,5.509-1.692,8.179-1.726
	C250.476,212.669,255.375,214.859,258.626,218.939"/>
<path fill="#EC0A7E" d="M362.932,171.247c0,0,0.644,0.264,1.88,0.768c1.222,0.491,3.023,1.333,5.284,2.419
	c2.26,1.104,4.978,2.443,8.034,4.143c3.059,1.744,6.451,3.782,10.037,6.126c14.392,9.507,31.778,25.275,43.436,46.085
	c5.883,10.283,10.323,21.886,12.838,33.768c0.618,3.012,1.122,6.027,1.514,9.035c0.393,3.006,0.617,6.129,0.755,9.169
	c0.293,6.048-0.017,12.32-0.729,18.35c-0.764,6.128-2.009,12.181-3.695,18.104c-1.737,6.011-3.853,11.786-6.405,17.507
	c-2.568,5.746-5.495,11.31-8.712,16.717c-3.241,5.449-6.798,10.784-10.531,15.975c0,0,1.442-1.841,4.049-5.168
	c2.62-3.316,6.418-8.106,11.221-13.928c4.806-5.819,10.615-12.672,17.367-20.033c6.74-7.332,14.394-15.128,23.042-22.79
	c4.323-3.827,8.905-7.625,13.726-11.27c4.793-3.613,9.84-7.092,15.154-10.337c10.669-6.533,22.208-11.934,34.811-15.523
	c6.229-1.724,12.768-3.029,19.45-3.676c3.319-0.303,6.696-0.46,10.126-0.457c3.438-0.005,6.915,0.164,10.362,0.566
	c3.471,0.386,6.983,0.949,10.532,1.701c3.517,0.774,7.01,1.782,10.556,2.971c1.766,0.6,3.554,1.241,5.313,1.954
	c1.74,0.724,3.486,1.5,5.232,2.332c3.477,1.672,7.041,3.516,10.408,5.689c0,0-0.455-0.393-1.308-1.128
	c-0.84-0.74-2.131-1.789-3.773-3.097c-3.283-2.619-7.918-6.305-13.736-10.255c-1.437-0.98-2.933-2.001-4.483-3.058
	c-1.585-0.992-3.224-2.016-4.91-3.07c-1.68-1.013-3.404-2.056-5.167-3.12c-1.76-1.04-3.626-2.022-5.479-3.03
	c-1.857-0.978-3.745-1.969-5.653-2.975c-1.911-0.974-3.9-1.875-5.863-2.792c-1.965-0.883-3.944-1.775-5.931-2.669
	c-2.006-0.838-4.034-1.629-6.04-2.41c-16.068-6.277-32.234-9.926-44.116-11.506c-2.993-0.384-5.651-0.759-8.069-0.946
	c-2.387-0.173-4.47-0.322-6.184-0.448c-3.377-0.235-5.326-0.229-5.326-0.229s-1.473-1.485-4.049-4.086
	c-1.289-1.329-2.939-2.812-4.849-4.552c-1.914-1.735-4.09-3.717-6.59-5.713c-9.852-8.199-24.412-18.215-40.891-25.887
	c-4.106-1.897-8.293-3.785-12.521-5.383c-4.213-1.713-8.455-3.129-12.626-4.497c-4.167-1.369-8.275-2.429-12.216-3.517
	c-3.943-0.938-7.728-1.806-11.253-2.522c-3.524-0.647-6.794-1.208-9.716-1.684c-2.915-0.411-5.479-0.712-7.603-0.967
	c-2.122-0.247-3.805-0.453-4.946-0.522C363.543,171.294,362.932,171.247,362.932,171.247"/>
<path fill="#EC0A7E" d="M521.197,207.025c-2.88,4.337-7.479,6.998-12.388,7.96c-4.894,0.898-10.237,0.326-15.018-2.292
	c-2.412-1.27-4.512-2.867-6.234-4.785c-1.712-1.933-3.102-4.069-4.096-6.355c-1.968-4.59-2.357-9.879-0.385-14.704
	c1.972-4.824,6.037-8.236,11.231-9.689c5.195-1.522,11.387-0.783,17.155,2.171c5.694,3.099,9.762,7.833,11.431,12.975
	C524.614,197.411,524.083,202.678,521.197,207.025"/>
<path fill="#EC0A7E" d="M598.596,291.331c0,0-0.175,2.85-0.782,7.819c-0.28,2.469-0.835,5.534-1.481,8.97
	c-0.335,1.723-0.711,3.545-1.14,5.455c-0.474,1.926-0.999,3.94-1.58,6.023c-0.588,2.083-1.213,4.231-1.932,6.442
	c-0.758,2.223-1.579,4.5-2.465,6.81c-1.714,4.606-3.965,9.427-6.402,14.223c-5.081,9.643-11.487,19.331-19.622,28.094
	c-8.076,8.759-17.519,16.54-28.181,22.602c-1.322,0.76-2.646,1.492-3.986,2.198c-1.374,0.704-2.758,1.382-4.146,2.033
	c-2.788,1.298-5.562,2.49-8.438,3.562c-5.824,2.135-11.62,3.825-17.73,5c-3.028,0.593-6.034,1.074-9.095,1.428
	c-3.091,0.348-6.182,0.582-9.266,0.702c-6.119,0.256-12.449,0-18.629-0.632c-6.157-0.62-12.458-1.703-18.611-3.081
	c-6.174-1.387-12.262-3.083-18.408-5.043c0,0,2.198,0.799,6.172,2.244c3.964,1.456,9.693,3.577,16.711,6.328
	c7.021,2.757,15.328,6.14,24.406,10.263c9.065,4.126,18.959,9.015,28.867,14.831c4.97,2.914,9.977,6.079,14.936,9.532
	c2.479,1.725,4.948,3.525,7.393,5.399c2.415,1.863,4.807,3.803,7.16,5.826c4.707,4.038,9.29,8.421,13.593,13.147
	c4.246,4.699,8.241,9.761,11.88,15.22c3.604,5.437,6.742,11.204,9.455,17.411c2.624,6.144,4.74,12.682,6.185,19.554
	c2.828,13.688,2.901,28.738-0.855,44.362c0,0,0.861-2.226,2.375-6.123c0.73-1.945,1.617-4.282,2.559-6.978
	c0.908-2.737,1.894-5.813,2.908-9.139c1.048-3.292,1.961-6.997,2.922-10.802c0.983-3.792,1.813-7.861,2.589-12.021
	c0.821-4.124,1.434-8.441,1.978-12.763c0.596-4.291,0.903-8.709,1.196-13.021l0.196-3.224l0.084-3.234
	c0.027-2.126,0.053-4.243,0.08-6.342c0.014-4.167-0.233-8.277-0.431-12.14c-0.259-3.89-0.688-7.623-1.075-11.079
	c-0.436-3.474-1.007-6.731-1.502-9.672c-0.473-2.938-1.141-5.638-1.646-7.97c-0.547-2.345-0.977-4.34-1.464-5.997
	c-0.928-3.266-1.461-5.13-1.461-5.13s0.248-0.46,0.712-1.32c0.477-0.859,1.135-2.133,1.918-3.782
	c0.791-1.662,1.756-3.683,2.859-5.998c1.037-2.349,2.152-5.036,3.375-8.01c1.199-2.976,2.325-6.259,3.576-9.781
	c1.128-3.527,2.305-7.308,3.375-11.284c0.993-3.978,2.094-8.155,2.875-12.458c0.41-2.152,0.854-4.342,1.211-6.552
	c0.319-2.224,0.639-4.457,0.959-6.69c2.465-17.98,1.907-36.911,0.124-51.242c-0.223-1.791-0.417-3.523-0.66-5.158
	c-0.268-1.633-0.524-3.183-0.764-4.638c-0.516-2.911-0.914-5.504-1.4-7.579C599.133,293.73,598.596,291.331,598.596,291.331"/>
<path fill="#EC0A7E" d="M613.492,452.83c-5.024-1.39-8.949-4.922-11.343-9.269c-1.247-2.192-2.13-4.603-2.561-7.122
	c-0.216-1.261-0.317-2.548-0.302-3.854c-0.025-1.312,0.074-2.644,0.301-3.984c0.981-5.345,3.609-9.925,7.428-13.216
	c3.809-3.27,8.603-5.274,13.826-4.887c5.171,0.383,9.787,3.192,12.728,7.653c2.933,4.441,4.374,10.549,3.218,16.9
	c-0.271,1.59-0.672,3.115-1.187,4.561c-0.556,1.437-1.221,2.793-1.983,4.051c-1.522,2.518-3.41,4.633-5.535,6.237
	C623.72,453.1,618.514,454.222,613.492,452.83"/>
</svg>
